<!-- Generated by IcoMoon.io -->
<svg version="1.1" xmlns="http://www.w3.org/2000/svg" width="14" height="14" viewBox="0 0 14 14">
<title>at-sign</title>
<path fill="none" stroke-linejoin="round" stroke-linecap="round" stroke-miterlimit="4" stroke-width="1.1667" stroke="#000" d="M9.333 7c0 1.289-1.045 2.333-2.333 2.333s-2.333-1.045-2.333-2.333c0-1.289 1.045-2.333 2.333-2.333s2.333 1.045 2.333 2.333z"></path>
<path fill="none" stroke-linejoin="round" stroke-linecap="round" stroke-miterlimit="4" stroke-width="1.1667" stroke="#000" d="M9.333 4.667v2.917c0 0.966 0.784 1.75 1.75 1.75s1.75-0.784 1.75-1.75v0-0.583c-0-3.222-2.612-5.833-5.833-5.833s-5.833 2.612-5.833 5.833 2.612 5.833 5.833 5.833c1.34 0 2.575-0.452 3.56-1.212l-0.014 0.010"></path>
</svg>
