<!-- Generated by IcoMoon.io -->
<svg version="1.1" xmlns="http://www.w3.org/2000/svg" width="14" height="14" viewBox="0 0 14 14">
<title>instagram</title>
<path fill="none" stroke-linejoin="round" stroke-linecap="round" stroke-miterlimit="4" stroke-width="1.1667" stroke="#000" d="M4.083 1.167h5.833c1.611 0 2.917 1.306 2.917 2.917v5.833c0 1.611-1.306 2.917-2.917 2.917h-5.833c-1.611 0-2.917-1.306-2.917-2.917v-5.833c0-1.611 1.306-2.917 2.917-2.917z"></path>
<path fill="none" stroke-linejoin="round" stroke-linecap="round" stroke-miterlimit="4" stroke-width="1.1667" stroke="#000" d="M9.333 6.633c0.016 0.103 0.025 0.221 0.025 0.342 0 1.289-1.045 2.333-2.333 2.333s-2.333-1.045-2.333-2.333c0-1.289 1.045-2.333 2.333-2.333 0.121 0 0.239 0.009 0.355 0.027l-0.013-0.002c1.017 0.155 1.811 0.949 1.964 1.953l0.002 0.013z"></path>
<path fill="none" stroke-linejoin="round" stroke-linecap="round" stroke-miterlimit="4" stroke-width="1.1667" stroke="#000" d="M10.208 3.792v0"></path>
</svg>
