<!-- Generated by IcoMoon.io -->
<svg version="1.1" xmlns="http://www.w3.org/2000/svg" width="14" height="14" viewBox="0 0 14 14">
<title>shopping-cart</title>
<path fill="none" stroke-linejoin="round" stroke-linecap="round" stroke-miterlimit="4" stroke-width="1.1667" stroke="#000" d="M5.833 12.25c0 0.322-0.261 0.583-0.583 0.583s-0.583-0.261-0.583-0.583c0-0.322 0.261-0.583 0.583-0.583s0.583 0.261 0.583 0.583z"></path>
<path fill="none" stroke-linejoin="round" stroke-linecap="round" stroke-miterlimit="4" stroke-width="1.1667" stroke="#000" d="M12.25 12.25c0 0.322-0.261 0.583-0.583 0.583s-0.583-0.261-0.583-0.583c0-0.322 0.261-0.583 0.583-0.583s0.583 0.261 0.583 0.583z"></path>
<path fill="none" stroke-linejoin="round" stroke-linecap="round" stroke-miterlimit="4" stroke-width="1.1667" stroke="#000" d="M0.583 0.583h2.333l1.563 7.811c0.11 0.539 0.58 0.939 1.144 0.939 0.008 0 0.016-0 0.024-0l-0.001 0h5.67c0.007 0 0.014 0 0.022 0 0.564 0 1.034-0.4 1.143-0.932l0.001-0.008 0.933-4.894h-9.917"></path>
</svg>
