<!-- Generated by IcoMoon.io -->
<svg version="1.1" xmlns="http://www.w3.org/2000/svg" width="14" height="14" viewBox="0 0 14 14">
<title>bell-off</title>
<path fill="none" stroke-linejoin="round" stroke-linecap="round" stroke-miterlimit="4" stroke-width="1.1667" stroke="#000" d="M4.993 1.692c0.577-0.332 1.269-0.527 2.007-0.527 2.255 0 4.083 1.828 4.083 4.083 0 0.001 0 0.001 0 0.002v-0 2.333M9.917 9.917h-8.75c0.966 0 1.75-0.784 1.75-1.75v0-2.917c0-0.002 0-0.003 0-0.005 0-0.684 0.168-1.329 0.466-1.896l-0.011 0.022M8.009 12.25c-0.206 0.35-0.58 0.581-1.009 0.581s-0.803-0.231-1.006-0.576l-0.003-0.005"></path>
<path fill="none" stroke-linejoin="round" stroke-linecap="round" stroke-miterlimit="4" stroke-width="1.1667" stroke="#000" d="M0.583 0.583l12.833 12.833"></path>
</svg>
