<!-- Generated by IcoMoon.io -->
<svg version="1.1" xmlns="http://www.w3.org/2000/svg" width="14" height="14" viewBox="0 0 14 14">
<title>image</title>
<path fill="none" stroke-linejoin="round" stroke-linecap="round" stroke-miterlimit="4" stroke-width="1.1667" stroke="#000" d="M2.917 1.75h8.167c0.644 0 1.167 0.522 1.167 1.167v8.167c0 0.644-0.522 1.167-1.167 1.167h-8.167c-0.644 0-1.167-0.522-1.167-1.167v-8.167c0-0.644 0.522-1.167 1.167-1.167z"></path>
<path fill="none" stroke-linejoin="round" stroke-linecap="round" stroke-miterlimit="4" stroke-width="1.1667" stroke="#000" d="M5.833 4.958c0 0.483-0.392 0.875-0.875 0.875s-0.875-0.392-0.875-0.875c0-0.483 0.392-0.875 0.875-0.875s0.875 0.392 0.875 0.875z"></path>
<path fill="none" stroke-linejoin="round" stroke-linecap="round" stroke-miterlimit="4" stroke-width="1.1667" stroke="#000" d="M12.25 8.75l-2.917-2.917-6.417 6.417"></path>
</svg>
