<!-- Generated by IcoMoon.io -->
<svg version="1.1" xmlns="http://www.w3.org/2000/svg" width="14" height="14" viewBox="0 0 14 14">
<title>thumbs-up</title>
<path fill="none" stroke-linejoin="round" stroke-linecap="round" stroke-miterlimit="4" stroke-width="1.1667" stroke="#000" d="M8.167 5.25v-2.333c0-0.966-0.784-1.75-1.75-1.75v0l-2.333 5.25v6.417h6.58c0.004 0 0.009 0 0.013 0 0.583 0 1.065-0.427 1.153-0.985l0.001-0.007 0.805-5.25c0.008-0.053 0.013-0.113 0.013-0.175 0-0.644-0.522-1.167-1.167-1.167-0.005 0-0.009 0-0.014 0h0.001zM4.083 12.833h-1.75c-0.644 0-1.167-0.522-1.167-1.167v0-4.083c0-0.644 0.522-1.167 1.167-1.167v0h1.75"></path>
</svg>
