<!-- Generated by IcoMoon.io -->
<svg version="1.1" xmlns="http://www.w3.org/2000/svg" width="14" height="14" viewBox="0 0 14 14">
<title>truck</title>
<path fill="none" stroke-linejoin="round" stroke-linecap="round" stroke-miterlimit="4" stroke-width="1.1667" stroke="#000" d="M0.583 1.75h8.75v7.583h-8.75v-7.583z"></path>
<path fill="none" stroke-linejoin="round" stroke-linecap="round" stroke-miterlimit="4" stroke-width="1.1667" stroke="#000" d="M9.333 4.667h2.333l1.75 1.75v2.917h-4.083v-4.667z"></path>
<path fill="none" stroke-linejoin="round" stroke-linecap="round" stroke-miterlimit="4" stroke-width="1.1667" stroke="#000" d="M4.667 10.792c0 0.805-0.653 1.458-1.458 1.458s-1.458-0.653-1.458-1.458c0-0.805 0.653-1.458 1.458-1.458s1.458 0.653 1.458 1.458z"></path>
<path fill="none" stroke-linejoin="round" stroke-linecap="round" stroke-miterlimit="4" stroke-width="1.1667" stroke="#000" d="M12.25 10.792c0 0.805-0.653 1.458-1.458 1.458s-1.458-0.653-1.458-1.458c0-0.805 0.653-1.458 1.458-1.458s1.458 0.653 1.458 1.458z"></path>
</svg>
