<!-- Generated by IcoMoon.io -->
<svg version="1.1" xmlns="http://www.w3.org/2000/svg" width="14" height="14" viewBox="0 0 14 14">
<title>message-circle</title>
<path fill="none" stroke-linejoin="round" stroke-linecap="round" stroke-miterlimit="4" stroke-width="1.1667" stroke="#000" d="M12.25 6.708c0 0.004 0 0.008 0 0.013 0 0.804-0.194 1.562-0.538 2.231l0.013-0.027c-0.832 1.638-2.504 2.741-4.433 2.742h-0c-0.004 0-0.008 0-0.013 0-0.804 0-1.562-0.194-2.231-0.538l0.027 0.013-3.325 1.108 1.108-3.325c-0.331-0.641-0.525-1.4-0.525-2.204 0-0.004 0-0.009 0-0.013v0.001c0.001-1.93 1.104-3.602 2.713-4.42l0.028-0.013c0.641-0.331 1.4-0.525 2.204-0.525 0.004 0 0.009 0 0.013 0h0.291c2.518 0.143 4.524 2.149 4.666 4.654l0.001 0.013v0.292z"></path>
</svg>
