<!-- Generated by IcoMoon.io -->
<svg version="1.1" xmlns="http://www.w3.org/2000/svg" width="14" height="14" viewBox="0 0 14 14">
<title>more-horizontal</title>
<path fill="none" stroke-linejoin="round" stroke-linecap="round" stroke-miterlimit="4" stroke-width="1.1667" stroke="#000" d="M7.583 7c0 0.322-0.261 0.583-0.583 0.583s-0.583-0.261-0.583-0.583c0-0.322 0.261-0.583 0.583-0.583s0.583 0.261 0.583 0.583z"></path>
<path fill="none" stroke-linejoin="round" stroke-linecap="round" stroke-miterlimit="4" stroke-width="1.1667" stroke="#000" d="M11.667 7c0 0.322-0.261 0.583-0.583 0.583s-0.583-0.261-0.583-0.583c0-0.322 0.261-0.583 0.583-0.583s0.583 0.261 0.583 0.583z"></path>
<path fill="none" stroke-linejoin="round" stroke-linecap="round" stroke-miterlimit="4" stroke-width="1.1667" stroke="#000" d="M3.5 7c0 0.322-0.261 0.583-0.583 0.583s-0.583-0.261-0.583-0.583c0-0.322 0.261-0.583 0.583-0.583s0.583 0.261 0.583 0.583z"></path>
</svg>
