<!-- Generated by IcoMoon.io -->
<svg version="1.1" xmlns="http://www.w3.org/2000/svg" width="14" height="14" viewBox="0 0 14 14">
<title>paperclip</title>
<path fill="none" stroke-linejoin="round" stroke-linecap="round" stroke-miterlimit="4" stroke-width="1.1667" stroke="#000" d="M12.507 6.446l-5.361 5.361c-0.634 0.634-1.509 1.026-2.476 1.026-1.934 0-3.502-1.568-3.502-3.502 0-0.967 0.392-1.843 1.026-2.476v0l5.361-5.361c0.422-0.422 1.006-0.684 1.651-0.684 1.289 0 2.335 1.045 2.335 2.335 0 0.645-0.261 1.228-0.684 1.651v0l-5.367 5.361c-0.211 0.211-0.503 0.342-0.825 0.342-0.645 0-1.167-0.523-1.167-1.167 0-0.322 0.131-0.614 0.342-0.825v0l4.952-4.947"></path>
</svg>
