<!-- Generated by IcoMoon.io -->
<svg version="1.1" xmlns="http://www.w3.org/2000/svg" width="14" height="14" viewBox="0 0 14 14">
<title>thumbs-down</title>
<path fill="none" stroke-linejoin="round" stroke-linecap="round" stroke-miterlimit="4" stroke-width="1.1667" stroke="#000" d="M5.833 8.75v2.333c0 0.966 0.784 1.75 1.75 1.75v0l2.333-5.25v-6.417h-6.58c-0.004-0-0.009-0-0.013-0-0.583 0-1.065 0.427-1.153 0.985l-0.001 0.007-0.805 5.25c-0.008 0.053-0.013 0.113-0.013 0.175 0 0.644 0.522 1.167 1.167 1.167 0.005 0 0.009-0 0.014-0h-0.001zM9.917 1.167h1.557c0.007-0 0.015-0 0.024-0 0.681 0 1.243 0.504 1.335 1.16l0.001 0.007v4.083c-0.092 0.662-0.655 1.167-1.335 1.167-0.008 0-0.017-0-0.025-0l0.001 0h-1.557"></path>
</svg>
