<!-- Generated by IcoMoon.io -->
<svg version="1.1" xmlns="http://www.w3.org/2000/svg" width="14" height="14" viewBox="0 0 14 14">
<title>link</title>
<path fill="none" stroke-linejoin="round" stroke-linecap="round" stroke-miterlimit="4" stroke-width="1.1667" stroke="#000" d="M5.833 7.583c0.538 0.713 1.383 1.17 2.336 1.17 0.806 0 1.535-0.327 2.063-0.855l1.75-1.75c0.507-0.524 0.819-1.239 0.819-2.026 0-1.611-1.306-2.917-2.917-2.917-0.788 0-1.502 0.312-2.027 0.82l0.001-0.001-1.003 0.997"></path>
<path fill="none" stroke-linejoin="round" stroke-linecap="round" stroke-miterlimit="4" stroke-width="1.1667" stroke="#000" d="M8.167 6.417c-0.538-0.713-1.383-1.17-2.336-1.17-0.806 0-1.535 0.327-2.063 0.855l-1.75 1.75c-0.507 0.524-0.819 1.239-0.819 2.026 0 1.611 1.306 2.917 2.917 2.917 0.788 0 1.502-0.312 2.027-0.82l-0.001 0.001 0.997-0.998"></path>
</svg>
