<!-- Generated by IcoMoon.io -->
<svg version="1.1" xmlns="http://www.w3.org/2000/svg" width="14" height="14" viewBox="0 0 14 14">
<title>phone</title>
<path fill="none" stroke-linejoin="round" stroke-linecap="round" stroke-miterlimit="4" stroke-width="1.1667" stroke="#000" d="M12.833 9.87v1.75c0 0.001 0 0.003 0 0.005 0 0.644-0.522 1.167-1.167 1.167-0.037 0-0.074-0.002-0.11-0.005l0.005 0c-1.893-0.211-3.603-0.85-5.078-1.818l0.044 0.027c-1.418-0.911-2.589-2.082-3.473-3.455l-0.027-0.045c-0.944-1.438-1.584-3.156-1.786-5.006l-0.005-0.052c-0.003-0.031-0.005-0.068-0.005-0.105 0-0.644 0.522-1.166 1.166-1.167h1.75c0.003-0 0.007-0 0.011-0 0.587 0 1.072 0.433 1.154 0.997l0.001 0.006c0.082 0.613 0.225 1.166 0.426 1.691l-0.017-0.051c0.047 0.122 0.075 0.263 0.075 0.41 0 0.32-0.129 0.61-0.337 0.82l-0.741 0.741c0.845 1.468 2.032 2.655 3.455 3.476l0.045 0.024 0.741-0.741c0.211-0.208 0.5-0.337 0.82-0.337 0.147 0 0.289 0.027 0.418 0.077l-0.008-0.003c0.473 0.183 1.027 0.326 1.6 0.404l0.039 0.004c0.57 0.083 1.004 0.568 1.004 1.155 0 0.010-0 0.020-0 0.030l0-0.001z"></path>
</svg>
