<!-- Generated by IcoMoon.io -->
<svg version="1.1" xmlns="http://www.w3.org/2000/svg" width="14" height="14" viewBox="0 0 14 14">
<title>settings</title>
<path fill="none" stroke-linejoin="round" stroke-linecap="round" stroke-miterlimit="4" stroke-width="1.1667" stroke="#000" d="M8.75 7c0 0.966-0.784 1.75-1.75 1.75s-1.75-0.784-1.75-1.75c0-0.966 0.784-1.75 1.75-1.75s1.75 0.784 1.75 1.75z"></path>
<path fill="none" stroke-linejoin="round" stroke-linecap="round" stroke-miterlimit="4" stroke-width="1.1667" stroke="#000" d="M11.317 8.75c-0.052 0.114-0.082 0.248-0.082 0.389 0 0.262 0.105 0.5 0.275 0.673l0.035 0.035c0.211 0.211 0.342 0.503 0.342 0.825s-0.131 0.614-0.342 0.825l-0 0c-0.211 0.211-0.503 0.342-0.825 0.342s-0.614-0.131-0.825-0.342l-0.035-0.035c-0.173-0.17-0.411-0.274-0.673-0.274-0.141 0-0.274 0.030-0.395 0.084l0.006-0.002c-0.345 0.151-0.582 0.488-0.583 0.881v0.099c0 0.644-0.522 1.167-1.167 1.167v0c-0.644 0-1.167-0.522-1.167-1.167v0-0.053c-0.010-0.403-0.266-0.744-0.623-0.879l-0.007-0.002c-0.114-0.052-0.248-0.082-0.389-0.082-0.262 0-0.5 0.105-0.673 0.275l-0.035 0.035c-0.211 0.211-0.503 0.342-0.825 0.342s-0.614-0.131-0.825-0.342l-0-0c-0.211-0.211-0.342-0.503-0.342-0.825s0.131-0.614 0.342-0.825l0.035-0.035c0.17-0.173 0.274-0.411 0.274-0.673 0-0.141-0.030-0.274-0.084-0.395l0.002 0.006c-0.151-0.345-0.488-0.582-0.881-0.583h-0.099c-0.644 0-1.167-0.522-1.167-1.167v0c0-0.644 0.522-1.167 1.167-1.167v0h0.052c0.403-0.010 0.744-0.266 0.879-0.623l0.002-0.007c0.052-0.114 0.082-0.248 0.082-0.389 0-0.262-0.105-0.5-0.275-0.673l-0.035-0.035c-0.211-0.211-0.342-0.503-0.342-0.825s0.131-0.614 0.342-0.825l0-0c0.211-0.211 0.503-0.342 0.825-0.342s0.614 0.131 0.825 0.342l0.035 0.035c0.173 0.17 0.411 0.274 0.673 0.274 0.141 0 0.274-0.030 0.395-0.084l-0.006 0.002h0.047c0.345-0.151 0.582-0.488 0.583-0.881v-0.099c0-0.644 0.522-1.167 1.167-1.167v0c0.644 0 1.167 0.522 1.167 1.167v0 0.052c0.002 0.393 0.239 0.73 0.577 0.878l0.006 0.002c0.114 0.052 0.248 0.082 0.389 0.082 0.262 0 0.5-0.105 0.673-0.275l0.035-0.035c0.211-0.211 0.503-0.342 0.825-0.342s0.614 0.131 0.825 0.342l0 0c0.211 0.211 0.342 0.503 0.342 0.825s-0.131 0.614-0.342 0.825l-0.035 0.035c-0.17 0.173-0.274 0.411-0.274 0.673 0 0.141 0.030 0.274 0.084 0.395l-0.002-0.006v0.047c0.151 0.345 0.488 0.582 0.881 0.583h0.099c0.644 0 1.167 0.522 1.167 1.167v0c0 0.644-0.522 1.167-1.167 1.167v0h-0.053c-0.393 0.002-0.73 0.239-0.878 0.577l-0.002 0.006z"></path>
</svg>
