<!-- Generated by IcoMoon.io -->
<svg version="1.1" xmlns="http://www.w3.org/2000/svg" width="14" height="14" viewBox="0 0 14 14">
<title>twitter</title>
<path fill="none" stroke-linejoin="round" stroke-linecap="round" stroke-miterlimit="4" stroke-width="1.1667" stroke="#000" d="M13.417 1.75c-0.525 0.375-1.133 0.679-1.787 0.881l-0.045 0.012c-0.482-0.552-1.186-0.898-1.972-0.898-1.443 0-2.613 1.17-2.613 2.613 0 0.012 0 0.025 0 0.037l-0-0.002v0.583c-0.048 0.001-0.105 0.002-0.161 0.002-2.096 0-3.949-1.037-5.076-2.625l-0.013-0.019s-2.333 5.25 2.917 7.583c-1.068 0.734-2.39 1.172-3.813 1.172-0.095 0-0.189-0.002-0.283-0.006l0.013 0c5.25 2.917 11.667 0 11.667-6.708-0.001-0.172-0.018-0.339-0.049-0.501l0.003 0.017c0.579-0.571 1.003-1.297 1.207-2.11l0.007-0.031z"></path>
</svg>
